<?xml version="1.0" encoding="iso-8859-1"?>
<!-- Generator: Adobe Illustrator 19.0.0, SVG Export Plug-In . SVG Version: 6.00 Build 0)  -->
<svg version="1.1" id="Layer_1" xmlns="http://www.w3.org/2000/svg" xmlns:xlink="http://www.w3.org/1999/xlink" x="0px" y="0px"
	 viewBox="0 0 512 512" style="enable-background:new 0 0 512 512;" xml:space="preserve">
<path style="fill:#CD2A00;" d="M456.5,386.31c-0.065-0.953-0.404-2.488-1.172-4.91c-0.009-0.029-0.018-0.056-0.028-0.085
	c-0.8-2.987-1.738-5.915-2.814-8.777C367.417,108.158,306.443,75.036,306.443,75.036l-0.018,0.029
	c-32.216-30.221-75.518-48.761-123.174-48.761c-99.478,0-180.436,80.643-180.436,180.121c0,74.504,46.116,138.436,109.425,165.844
	v0.004c0,0.009,0.362,0.018,0.387,0.029c3.07,1.303,6.348,2.508,9.503,3.642c99.681,39.249,147.201,72.708,167.514,90.327
	c3.982,4.861,8.473,10.637,13.329,14.624c0.001,0.001,0.07,1.326,0.07,1.326h-0.01c16.425,10.211,37.435,20.266,60.345,20.266
	c52.565,0,95.174-43.272,95.174-95.837C458.552,399.901,457.835,392.661,456.5,386.31z"/>
<g>
	<path style="fill:#F97C55;" d="M107.878,127.479c-39.314,38.432-44.052,101.294-10.655,144.966
		c21.462,28.064,53.411,42.71,85.67,43.202c29.366,0.448,45.691-33.734,26.625-56.075l-3.705-4.342
		c-5.289-6.198-15.589-14.266-23.17-17.255c-3.382-1.334-6.55-3.345-9.01-6.227c-10.061-11.791-6.675-30.706,7.629-38.497
		c5.993-3.264,13.242-3.696,19.72-1.549c10.701,3.547,15.304,12.192,16.476,20.491c1.18,8.367,5.134,16.099,10.619,22.526
		l4.794,5.618c18.69,21.903,54.628,12.136,59.381-16.262c5.16-30.834-2.595-63.732-24.404-89.291
		C226.896,86.793,153.785,82.603,107.878,127.479z"/>
	<path style="fill:#F97C55;" d="M384.361,430.615c-25.183,28.91-54.424,15.159-83.334-10.023
		c-28.91-25.183-46.539-52.262-21.356-81.171s69.033-31.93,97.942-6.747C406.522,357.856,409.544,401.705,384.361,430.615z"/>
</g>
<g>
	<path style="fill:#EF663C;" d="M487.871,278.923l-25.82,8.11c-2.356,0.739-4.888-0.582-5.627-2.938L396.703,93.953
		c-0.739-2.356,0.582-4.888,2.938-5.627l25.82-8.11c2.356-0.739,4.888,0.582,5.627,2.938l59.721,190.142
		C491.548,275.65,490.227,278.183,487.871,278.923z"/>
	<path style="fill:#EF663C;" d="M485.821,330.593l-27.059,0.455c-2.468,0.042-4.522-1.944-4.563-4.412l-3.549-210.949
		c-0.042-2.468,1.944-4.522,4.412-4.563l27.059-0.455c2.468-0.042,4.522,1.944,4.563,4.412l3.549,210.949
		C490.275,328.498,488.289,330.551,485.821,330.593z"/>
</g>
<g>
	<circle style="fill:#F25733;" cx="470.639" cy="232.864" r="33.697"/>
	<circle style="fill:#F25733;" cx="363.218" cy="42.609" r="33.697"/>
</g>
<g style="opacity:0.26;">
	<path style="fill:#781900;" d="M455.542,381.4c-0.009-0.029-0.018-0.056-0.028-0.085c-0.799-2.987-1.738-5.915-2.814-8.777
		c-10.995-34.171-21.586-64.47-31.697-91.341c0,0-61.68,54.527-188.072,54.527c-148.828,0-213.492-54.527-213.492-54.527
		c18.819,40.832,52.374,73.479,93.015,91.074v0.004c0,0.009,0.362,0.018,0.387,0.029c3.07,1.303,6.348,2.508,9.503,3.642
		c99.681,39.249,147.201,72.709,167.514,90.327c3.982,4.86,8.473,10.637,13.329,14.624c0.001,0.001,0.07,1.326,0.07,1.326h-0.01
		c16.425,10.211,37.435,20.266,60.345,20.266c52.565,0,95.174-43.272,95.174-95.837c0-6.75-0.717-13.989-2.052-20.34
		C456.649,385.357,456.311,383.821,455.542,381.4z"/>
</g>
<path d="M463.143,378.406c-0.827-3.065-1.803-6.111-2.903-9.058c-15.097-46.906-30.484-89.682-45.732-127.142
	C358.637,104.96,319.383,75.274,312.953,71.14c-34.519-32.058-79.401-49.701-126.49-49.701C83.647,21.439,0,104.868,0,207.415
	c0,36.998,11.078,72.916,32.036,103.87c20.213,29.853,48.125,53.137,80.719,67.336l0.005-0.012c0.512,0.22,1.065,0.391,1.659,0.505
	c2.828,1.161,5.746,2.211,8.578,3.23l0.171,0.061c98.053,38.618,144.132,71.312,163.075,87.62c3.672,4.47,7.589,9.074,11.894,12.948
	c0.519,1.084,1.296,2.054,2.301,2.811c18.824,14.186,41.677,21.998,64.35,21.998c56.177,0,101.88-45.91,101.88-102.341
	c0-7.093-0.728-14.373-2.107-21.087C464.388,382.803,463.943,380.937,463.143,378.406z M364.788,492.465
	c-18.572,0-37.336-6.175-53.117-17.434c-0.311-0.566-0.728-1.135-1.291-1.699c-0.178-0.177-0.363-0.345-0.557-0.503
	c-4.182-3.433-8.297-8.316-12.153-13.021c-0.276-0.335-0.577-0.647-0.906-0.931c-19.38-16.809-66.989-50.953-168.094-90.763
	c-0.07-0.028-0.142-0.055-0.212-0.08l-0.277-0.101c-2.983-1.072-6.066-2.182-8.818-3.35c-0.116-0.049-0.234-0.095-0.352-0.139
	c-0.441-0.161-0.85-0.268-1.216-0.336C55.503,336.468,15.317,275.094,15.317,207.415c0-94.102,76.776-170.659,171.147-170.659
	c43.497,0,84.942,16.407,116.702,46.199c0.536,0.503,1.138,0.92,1.783,1.245c3.673,2.481,41.02,30.263,95.374,163.783
	c15.123,37.15,30.395,79.62,45.392,126.227c0.038,0.116,0.078,0.233,0.121,0.346c0.972,2.591,1.833,5.276,2.557,7.98
	c0.026,0.097,0.054,0.192,0.084,0.288c0.005,0.016,0.037,0.115,0.042,0.131c0.695,2.191,0.81,3,0.822,3.098
	c0.024,0.344,0.073,0.685,0.144,1.022c1.206,5.729,1.869,12.252,1.869,18.366C451.351,453.426,412.52,492.465,364.788,492.465z"/>
<path d="M301.929,226.154c5.717-34.161-3.72-68.652-25.888-94.632c-20.888-24.478-51.24-39.346-83.274-40.794
	c-32.331-1.45-62.974,10.278-86.274,33.056c-20.173,19.721-32.444,46.257-34.552,74.724c-2.111,28.506,6.154,56.534,23.274,78.92
	c21.827,28.544,54.915,45.228,90.78,45.774c0.225,0.004,0.447,0.005,0.671,0.005c16.294,0,30.659-9.085,37.599-23.834
	c6.982-14.838,4.695-31.818-5.968-44.313l-3.668-4.298c-5.692-6.669-16.956-15.687-25.954-19.236
	c-2.481-0.978-4.467-2.327-5.904-4.011c-3.231-3.787-4.542-8.892-3.596-14.008c0.981-5.31,4.257-9.832,8.987-12.409
	c3.95-2.151,8.852-2.513,13.449-0.989c7.934,2.629,10.436,9.111,11.137,14.086c1.307,9.267,5.551,18.327,12.27,26.202l4.746,5.562
	c10.554,12.369,26.865,17.35,42.563,12.999C287.923,254.639,299.265,242.068,301.929,226.154z M241.416,236.019l-4.746-5.562
	c-4.828-5.658-7.854-12.019-8.755-18.4c-1.822-12.91-9.653-22.562-21.484-26.486c-8.607-2.853-17.937-2.096-25.596,2.078
	c-8.802,4.794-14.896,13.205-16.721,23.075c-1.788,9.675,0.766,19.419,7.007,26.734c3.082,3.612,7.098,6.41,11.936,8.318
	c5.765,2.273,15.075,9.249,19.921,14.928l3.668,4.298c6.807,7.978,8.213,18.388,3.761,27.85
	c-3.48,7.394-11.682,15.219-24.178,15.036c-31.146-0.475-59.884-14.967-78.846-39.763C76.5,227.74,80.722,170.396,117.2,134.736
	c19.111-18.683,43.889-28.814,70.218-28.814c1.546,0,3.103,0.035,4.659,0.105c27.813,1.257,54.17,14.173,72.315,35.436
	c19.223,22.529,27.399,52.476,22.432,82.161c-1.694,10.128-8.643,17.819-18.585,20.574
	C258.336,246.941,248.06,243.806,241.416,236.019z"/>
<path d="M383.912,326.625c-31.758-27.665-80.103-24.333-107.767,7.424c-35.707,40.992,7.642,78.755,21.888,91.164
	c9.488,8.266,31.882,27.774,56.337,27.774c12.26,0,25.043-4.908,36.967-18.596c0,0,0,0,0-0.001
	C419.002,402.632,415.671,354.288,383.912,326.625z M379.788,424.33c-17.977,20.639-39.419,17.449-71.694-10.665
	c-32.275-28.115-38.376-48.917-20.4-69.554c12.058-13.842,29.029-20.929,46.087-20.929c14.231,0,28.524,4.933,40.071,14.993
	c12.299,10.713,19.69,25.576,20.811,41.848C395.785,396.295,390.501,412.03,379.788,424.33z"/>
<path d="M512,233.589c0-13.235-6.306-25.019-16.065-32.524l-1.345-79.865c-0.074-4.383-1.855-8.481-5.019-11.54
	c-3.164-3.059-7.314-4.734-11.7-4.628l-18.105,0.304c-4.747,0.081-8.984,2.187-11.934,5.466l-7.405-23.576
	c-1.313-4.182-4.185-7.605-8.084-9.641c-3.9-2.036-8.352-2.434-12.531-1.12l-17.275,5.425c-4.182,1.313-7.606,4.185-9.641,8.084
	c-2.036,3.901-2.434,8.353-1.089,12.63l39.579,120.347c-0.926,3.435-1.427,7.005-1.427,10.637c0,13.235,6.306,25.018,16.065,32.524
	l0.945,56.096c0.074,4.383,1.855,8.481,5.018,11.54c3.095,2.993,7.14,4.63,11.417,4.63c0.095,0,0.19,0,0.284-0.002l18.105-0.304
	c9.065-0.153,16.316-7.653,16.165-16.72l-0.945-56.087C506.159,257.734,512,246.331,512,233.589z M460.025,120.651l18.105-0.304
	c0.377,0.029,0.638,0.173,0.794,0.324c0.156,0.151,0.345,0.41,0.351,0.785l1.216,72.238c-3.055-0.729-6.238-1.125-9.513-1.125
	c-3.707,0-7.347,0.491-10.848,1.449l-0.762-45.262c0-0.06-0.002-0.12-0.003-0.181l-0.45-26.774
	C458.905,121.197,459.424,120.661,460.025,120.651z M406.388,97.917c-0.112-0.357-0.016-0.662,0.085-0.855
	c0.102-0.193,0.296-0.447,0.654-0.56l17.277-5.425c0.354-0.112,0.66-0.016,0.853,0.085c0.193,0.101,0.447,0.296,0.56,0.654
	l18.254,58.118l0.874,51.97c-1.175,0.967-2.296,1.988-3.347,3.069L406.388,97.917z M456.136,212.602
	c4.352-3.085,9.484-4.717,14.843-4.717c14.173,0,25.704,11.531,25.704,25.704s-11.531,25.703-25.704,25.703
	c-14.173,0-25.703-11.53-25.703-25.703C445.276,225.269,449.336,217.423,456.136,212.602z M482.644,321.607
	c0.01,0.602-0.508,1.139-1.109,1.149l-18.105,0.304c-0.369,0.028-0.638-0.173-0.794-0.324c-0.156-0.151-0.345-0.41-0.351-0.785
	l-0.816-48.468c3.055,0.728,6.237,1.125,9.512,1.125c3.756,0,7.391-0.518,10.849-1.467L482.644,321.607z"/>
<path d="M364.629,86.258c22.618,0,41.02-18.401,41.02-41.02s-18.402-41.02-41.02-41.02c-22.619,0-41.021,18.401-41.021,41.02
	S342.009,86.258,364.629,86.258z M364.629,19.535c14.173,0,25.703,11.53,25.703,25.703s-11.53,25.703-25.703,25.703
	c-14.173,0-25.704-11.53-25.704-25.703S350.456,19.535,364.629,19.535z"/>
<g>
</g>
<g>
</g>
<g>
</g>
<g>
</g>
<g>
</g>
<g>
</g>
<g>
</g>
<g>
</g>
<g>
</g>
<g>
</g>
<g>
</g>
<g>
</g>
<g>
</g>
<g>
</g>
<g>
</g>
</svg>
