<?xml version="1.0" encoding="iso-8859-1"?>
<!-- Generator: Adobe Illustrator 18.0.0, SVG Export Plug-In . SVG Version: 6.00 Build 0)  -->
<!DOCTYPE svg PUBLIC "-//W3C//DTD SVG 1.1//EN" "http://www.w3.org/Graphics/SVG/1.1/DTD/svg11.dtd">
<svg version="1.1" id="Capa_1" xmlns="http://www.w3.org/2000/svg" xmlns:xlink="http://www.w3.org/1999/xlink" x="0px" y="0px"
	 viewBox="0 0 297.5 297.5" style="enable-background:new 0 0 297.5 297.5;" xml:space="preserve">
<g id="XMLID_24_">
	<g>
		<path style="fill:#3D592E;" d="M192.78,158.63c15.239,0,27.63,12.4,27.63,27.63c0,15.23-12.391,27.62-27.63,27.62
			c-15.23,0-27.62-12.39-27.62-27.62C165.16,171.03,177.55,158.63,192.78,158.63z"/>
		<path style="fill:#A0AD39;" d="M254.75,167.43c7.77,0,14.58,10.62,14.58,22.73c0,12.109-6.81,22.729-14.58,22.729
			c-7.76,0-14.57-10.62-14.57-22.729C240.18,178.05,246.99,167.43,254.75,167.43z"/>
		<path style="fill:#B04919;" d="M44.58,167.43c7.77,0,14.58,10.62,14.58,22.73c0,12.109-6.81,22.729-14.58,22.729
			C36.81,212.89,30,202.27,30,190.16C30,178.05,36.81,167.43,44.58,167.43z"/>
		<polygon style="fill:#F5B543;" points="116.55,168.42 139.28,213.88 83.62,213.88 83.62,168.42 		"/>
		<path d="M287.37,213.88c5.46,0,9.88,4.43,9.88,9.89c0,5.45-4.42,9.881-9.88,9.881H10.14c-5.46,0-9.89-4.431-9.89-9.881
			c0-5.46,4.43-9.89,9.89-9.89h5.96c-3.699-6.78-5.87-14.939-5.87-23.72c0-19.18,10.33-35.43,24.471-40.7V92.32
			c0-5.46,4.42-9.891,9.88-9.891c5.46,0,9.88,4.431,9.88,9.891v57.14c3.58,1.34,6.91,3.38,9.89,5.98
			c1.301-3.94,5.011-6.79,9.391-6.79h22.73V93.3c0-5.45,4.42-9.88,9.88-9.88c5.46,0,9.891,4.43,9.891,9.88v55.351h6.42
			c3.74,0,7.17,2.119,8.84,5.47l14.07,28.14c1.159-13.74,8.189-25.83,18.58-33.729c0.1-12.23,7.88-22.65,18.75-26.66V73.73
			c0-5.45,4.43-9.881,9.88-9.881c5.46,0,9.89,4.431,9.89,9.881v48.14c10.87,4.01,18.65,14.43,18.75,26.66
			c3.86,2.93,7.25,6.45,10.06,10.42c3.78-4.32,8.341-7.601,13.391-9.49V92.32c0-5.46,4.43-9.891,9.88-9.891
			c5.46,0,9.89,4.431,9.89,9.891v57.14c14.13,5.27,24.46,21.52,24.46,40.7c0,8.78-2.16,16.939-5.859,23.72H287.37z M269.33,190.16
			c0-12.11-6.81-22.73-14.58-22.73c-7.76,0-14.57,10.62-14.57,22.73c0,12.109,6.811,22.729,14.57,22.729
			C262.52,212.89,269.33,202.27,269.33,190.16z M220.41,186.26c0-15.229-12.391-27.63-27.63-27.63c-15.23,0-27.62,12.4-27.62,27.63
			c0,15.23,12.39,27.62,27.62,27.62C208.02,213.88,220.41,201.49,220.41,186.26z M139.28,213.88l-22.73-45.46H83.62v45.46H139.28z
			 M59.16,190.16c0-12.11-6.81-22.73-14.58-22.73c-7.771,0-14.58,10.62-14.58,22.73c0,12.109,6.81,22.729,14.58,22.729
			C52.35,212.89,59.16,202.27,59.16,190.16z"/>
	</g>
	<g>
	</g>
</g>
<g>
</g>
<g>
</g>
<g>
</g>
<g>
</g>
<g>
</g>
<g>
</g>
<g>
</g>
<g>
</g>
<g>
</g>
<g>
</g>
<g>
</g>
<g>
</g>
<g>
</g>
<g>
</g>
<g>
</g>
</svg>
